HIERARCHY
ROOT Root
{
  OFFSET 0.0 0.0 0.0
  CHANNELS 6 Xposition Yposition Zposition Zrotation Yrotation Xrotation
  JOINT Hips
  {
    OFFSET 0.0 100.0 0.0
    CHANNELS 6 Xposition Yposition Zposition Zrotation Yrotation Xrotation
    JOINT Spine1
    {
      OFFSET 5.003913 -0.037094 -0.013727
      CHANNELS 3 Zrotation Yrotation Xrotation
      JOINT Spine2
      {
        OFFSET 7.125363 -1e-06 0.0
        CHANNELS 3 Zrotation Yrotation Xrotation
        JOINT Chest
        {
          OFFSET 7.594027 1e-06 0.0
          CHANNELS 3 Zrotation Yrotation Xrotation
          JOINT Neck1
          {
            OFFSET 26.313086 -0.460272 -0.181672
            CHANNELS 3 Zrotation Yrotation Xrotation
            JOINT Neck2
            {
              OFFSET 8.045911 0.0 0.0
              CHANNELS 3 Zrotation Yrotation Xrotation
              JOINT Head
              {
                OFFSET 6.432774 0.0 0.0
                CHANNELS 3 Zrotation Yrotation Xrotation
                JOINT HeadEnd
                {
                  OFFSET 16.169773 0.06451 0.00362
                  CHANNELS 3 Zrotation Yrotation Xrotation
                }
                JOINT Jaw
                {
                  OFFSET 0.108741 3.12938 0.002639
                  CHANNELS 3 Zrotation Yrotation Xrotation
                }
                JOINT LeftEye
                {
                  OFFSET 4.45173 8.166359 3.206392
                  CHANNELS 3 Zrotation Yrotation Xrotation
                }
                JOINT RightEye
                {
                  OFFSET 4.436895 8.135758 -3.222429
                  CHANNELS 3 Zrotation Yrotation Xrotation
                }
              }
            }
          }
          JOINT LeftShoulder
          {
            OFFSET 23.218927 5.195579 1.621656
            CHANNELS 3 Zrotation Yrotation Xrotation
            JOINT LeftArm
            {
              OFFSET 15.902118 2e-06 -2e-06
              CHANNELS 3 Zrotation Yrotation Xrotation
              JOINT LeftForeArm
              {
                OFFSET 28.739307 0.0 -1e-06
                CHANNELS 3 Zrotation Yrotation Xrotation
                JOINT LeftHand
                {
                  OFFSET 27.093981 -4e-06 0.0
                  CHANNELS 3 Zrotation Yrotation Xrotation
                  JOINT LeftHandThumb1
                  {
                    OFFSET 2.276781 3.380274 0.83384
                    CHANNELS 3 Zrotation Yrotation Xrotation
                    JOINT LeftHandThumb2
                    {
                      OFFSET 4.705309 -1e-06 -1e-06
                      CHANNELS 3 Zrotation Yrotation Xrotation
                      JOINT LeftHandThumb3
                      {
                        OFFSET 2.798515 0.0 3e-06
                        CHANNELS 3 Zrotation Yrotation Xrotation
                        JOINT LeftHandThumbEnd
                        {
                          OFFSET 3.180793 4e-06 -4e-06
                          CHANNELS 3 Zrotation Yrotation Xrotation
                        }
                      }
                    }
                  }
                  JOINT LeftHandIndex1
                  {
                    OFFSET 3.247786 2.352677 0.137192
                    CHANNELS 3 Zrotation Yrotation Xrotation
                    JOINT LeftHandIndex2
                    {
                      OFFSET 6.367095 1e-06 0.0
                      CHANNELS 3 Zrotation Yrotation Xrotation
                      JOINT LeftHandIndex3
                      {
                        OFFSET 3.662364 0.0 0.0
                        CHANNELS 3 Zrotation Yrotation Xrotation
                        JOINT LeftHandIndex4
                        {
                          OFFSET 2.329242 4e-06 -4e-06
                          CHANNELS 3 Zrotation Yrotation Xrotation
                          JOINT LeftHandIndexEnd
                          {
                            OFFSET 2.767823 1e-06 0.0
                            CHANNELS 3 Zrotation Yrotation Xrotation
                          }
                        }
                      }
                    }
                  }
                  JOINT LeftHandMiddle1
                  {
                    OFFSET 3.163612 0.945023 -0.406112
                    CHANNELS 3 Zrotation Yrotation Xrotation
                    JOINT LeftHandMiddle2
                    {
                      OFFSET 6.276789 3e-06 0.0
                      CHANNELS 3 Zrotation Yrotation Xrotation
                      JOINT LeftHandMiddle3
                      {
                        OFFSET 4.35652 -1e-06 4e-06
                        CHANNELS 3 Zrotation Yrotation Xrotation
                        JOINT LeftHandMiddle4
                        {
                          OFFSET 2.996877 0.0 8e-06
                          CHANNELS 3 Zrotation Yrotation Xrotation
                          JOINT LeftHandMiddleEnd
                          {
                            OFFSET 2.323256 3e-06 -4e-06
                            CHANNELS 3 Zrotation Yrotation Xrotation
                          }
                        }
                      }
                    }
                  }
                  JOINT LeftHandRing1
                  {
                    OFFSET 2.882606 -0.309162 0.107445
                    CHANNELS 3 Zrotation Yrotation Xrotation
                    JOINT LeftHandRing2
                    {
                      OFFSET 6.033198 0.0 4e-06
                      CHANNELS 3 Zrotation Yrotation Xrotation
                      JOINT LeftHandRing3
                      {
                        OFFSET 4.350578 3e-06 0.0
                        CHANNELS 3 Zrotation Yrotation Xrotation
                        JOINT LeftHandRing4
                        {
                          OFFSET 2.651321 2e-06 -7e-06
                          CHANNELS 3 Zrotation Yrotation Xrotation
                          JOINT LeftHandRingEnd
                          {
                            OFFSET 1.937663 1e-06 -4e-06
                            CHANNELS 3 Zrotation Yrotation Xrotation
                          }
                        }
                      }
                    }
                  }
                  JOINT LeftHandPinky1
                  {
                    OFFSET 2.865315 -1.525436 0.575687
                    CHANNELS 3 Zrotation Yrotation Xrotation
                    JOINT LeftHandPinky2
                    {
                      OFFSET 5.54936 1e-06 -8e-06
                      CHANNELS 3 Zrotation Yrotation Xrotation
                      JOINT LeftHandPinky3
                      {
                        OFFSET 3.070974 0.0 -4e-06
                        CHANNELS 3 Zrotation Yrotation Xrotation
                        JOINT LeftHandPinky4
                        {
                          OFFSET 1.549672 1e-06 0.0
                          CHANNELS 3 Zrotation Yrotation Xrotation
                          JOINT LeftHandPinkyEnd
                          {
                            OFFSET 1.952123 0.0 0.0
                            CHANNELS 3 Zrotation Yrotation Xrotation
                          }
                        }
                      }
                    }
                  }
                }
              }
            }
          }
          JOINT RightShoulder
          {
            OFFSET 23.161716 5.296122 -1.380114
            CHANNELS 3 Zrotation Yrotation Xrotation
            JOINT RightArm
            {
              OFFSET -16.027195 -2e-06 1.1e-05
              CHANNELS 3 Zrotation Yrotation Xrotation
              JOINT RightForeArm
              {
                OFFSET -28.736639 4e-06 2e-06
                CHANNELS 3 Zrotation Yrotation Xrotation
                JOINT RightHand
                {
                  OFFSET -27.133619 6e-06 0.0
                  CHANNELS 3 Zrotation Yrotation Xrotation
                  JOINT RightHandThumb1
                  {
                    OFFSET -2.274328 -3.351035 -0.83067
                    CHANNELS 3 Zrotation Yrotation Xrotation
                    JOINT RightHandThumb2
                    {
                      OFFSET -4.703594 -3e-06 2e-06
                      CHANNELS 3 Zrotation Yrotation Xrotation
                      JOINT RightHandThumb3
                      {
                        OFFSET -2.794935 -4e-06 -3e-06
                        CHANNELS 3 Zrotation Yrotation Xrotation
                        JOINT RightHandThumbEnd
                        {
                          OFFSET -3.183852 4e-06 1e-06
                          CHANNELS 3 Zrotation Yrotation Xrotation
                        }
                      }
                    }
                  }
                  JOINT RightHandIndex1
                  {
                    OFFSET -3.253496 -2.33755 -0.127667
                    CHANNELS 3 Zrotation Yrotation Xrotation
                    JOINT RightHandIndex2
                    {
                      OFFSET -6.344434 0.0 0.0
                      CHANNELS 3 Zrotation Yrotation Xrotation
                      JOINT RightHandIndex3
                      {
                        OFFSET -3.654871 0.0 -8e-06
                        CHANNELS 3 Zrotation Yrotation Xrotation
                        JOINT RightHandIndex4
                        {
                          OFFSET -2.327586 -1e-06 0.0
                          CHANNELS 3 Zrotation Yrotation Xrotation
                          JOINT RightHandIndexEnd
                          {
                            OFFSET -2.770001 3e-06 8e-06
                            CHANNELS 3 Zrotation Yrotation Xrotation
                          }
                        }
                      }
                    }
                  }
                  JOINT RightHandMiddle1
                  {
                    OFFSET -3.168223 -0.944764 0.411762
                    CHANNELS 3 Zrotation Yrotation Xrotation
                    JOINT RightHandMiddle2
                    {
                      OFFSET -6.266691 -1e-06 -4e-06
                      CHANNELS 3 Zrotation Yrotation Xrotation
                      JOINT RightHandMiddle3
                      {
                        OFFSET -4.348901 0.0 0.0
                        CHANNELS 3 Zrotation Yrotation Xrotation
                        JOINT RightHandMiddle4
                        {
                          OFFSET -3.00024 2e-06 -4e-06
                          CHANNELS 3 Zrotation Yrotation Xrotation
                          JOINT RightHandMiddleEnd
                          {
                            OFFSET -2.321477 -4e-06 -4e-06
                            CHANNELS 3 Zrotation Yrotation Xrotation
                          }
                        }
                      }
                    }
                  }
                  JOINT RightHandRing1
                  {
                    OFFSET -2.885654 0.293261 -0.119232
                    CHANNELS 3 Zrotation Yrotation Xrotation
                    JOINT RightHandRing2
                    {
                      OFFSET -6.032835 -1e-06 -4e-06
                      CHANNELS 3 Zrotation Yrotation Xrotation
                      JOINT RightHandRing3
                      {
                        OFFSET -4.33881 0.0 -4e-06
                        CHANNELS 3 Zrotation Yrotation Xrotation
                        JOINT RightHandRing4
                        {
                          OFFSET -2.654903 -4e-06 -4e-06
                          CHANNELS 3 Zrotation Yrotation Xrotation
                          JOINT RightHandRingEnd
                          {
                            OFFSET -1.935122 0.0 4e-06
                            CHANNELS 3 Zrotation Yrotation Xrotation
                          }
                        }
                      }
                    }
                  }
                  JOINT RightHandPinky1
                  {
                    OFFSET -2.866241 1.503904 -0.60527
                    CHANNELS 3 Zrotation Yrotation Xrotation
                    JOINT RightHandPinky2
                    {
                      OFFSET -5.553177 -2e-06 0.0
                      CHANNELS 3 Zrotation Yrotation Xrotation
                      JOINT RightHandPinky3
                      {
                        OFFSET -3.062664 -1e-06 -4e-06
                        CHANNELS 3 Zrotation Yrotation Xrotation
                        JOINT RightHandPinky4
                        {
                          OFFSET -1.546529 2e-06 4e-06
                          CHANNELS 3 Zrotation Yrotation Xrotation
                          JOINT RightHandPinkyEnd
                          {
                            OFFSET -1.952341 0.0 -4e-06
                            CHANNELS 3 Zrotation Yrotation Xrotation
                          }
                        }
                      }
                    }
                  }
                }
              }
            }
          }
        }
      }
    }
    JOINT LeftLeg
    {
      OFFSET -8.443107 2.567604 10.043214
      CHANNELS 3 Zrotation Yrotation Xrotation
      JOINT LeftShin
      {
        OFFSET 43.229198 1e-06 -1e-06
        CHANNELS 3 Zrotation Yrotation Xrotation
        JOINT LeftFoot
        {
          OFFSET 42.298611 1e-06 1e-06
          CHANNELS 3 Zrotation Yrotation Xrotation
          JOINT LeftToeBase
          {
            OFFSET 14.165858 1e-06 0.0
            CHANNELS 3 Zrotation Yrotation Xrotation
            JOINT LeftToeEnd
            {
              OFFSET 6.7141 -0.234461 0.0
              CHANNELS 3 Zrotation Yrotation Xrotation
            }
          }
        }
      }
    }
    JOINT RightLeg
    {
      OFFSET -8.303923 2.592729 -10.047278
      CHANNELS 3 Zrotation Yrotation Xrotation
      JOINT RightShin
      {
        OFFSET -43.369682 0.0 1e-06
        CHANNELS 3 Zrotation Yrotation Xrotation
        JOINT RightFoot
        {
          OFFSET -42.260784 4e-06 2e-06
          CHANNELS 3 Zrotation Yrotation Xrotation
          JOINT RightToeBase
          {
            OFFSET -14.222245 -2e-06 -1e-06
            CHANNELS 3 Zrotation Yrotation Xrotation
            JOINT RightToeEnd
            {
              OFFSET -6.660062 0.232574 -2e-06
              CHANNELS 3 Zrotation Yrotation Xrotation
            }
          }
        }
      }
    }
  }
}
MOTION
Frames: 4
Frame Time: 0.03333333333333333
0.0 0.0 0.0 0.0 -0.0 0.0 -10.085846 17.720753 99.10157 166.112473 -85.141586 67.125 3.20247 -8.193419 -2.428749 -11.074915 -2.471206 -1.651661 19.2537 -7.089454 -4.469829 41.556278 15.081333 1.544688 -2.136937 4.632741 -1.626231 -19.544086 2.167241 -6.674299 5e-06 -1e-06 2e-06 -0.335231 0.350141 -0.109288 0.629939 0.624044 -0.110731 0.940012 0.048678 -0.085053 -4.960457 -70.82148 14.624106 45.897369 -29.73122 -29.428663 112.792679 1.334301 3.896237 1.916644 34.274124 6.501095 17.636627 -26.322721 52.411186 -19.466661 -14.395597 29.410385 -0.0 -8.774821 -2e-06 14.483486 -18.265734 8.14817 -0.609776 -1.795653 -3.889327 -4.807089 -11.046809 -2.937851 6e-06 -20.976015 -2e-06 -5.019969 -25.033552 -4.031878 6e-06 -0.0 1e-06 -10.634533 -5.686968 -3.565588 10.573271 -17.922947 -3.113899 3e-06 -13.821206 -1e-06 -0.501779 -31.181501 -4.027012 -14.646613 -59.740482 10.853415 -13.982712 -7.150198 -2.875043 13.77273 -8.401486 -3.218242 0.347736 -34.21154 0.771653 -0.963029 -17.733366 2.62102 -0.0 -0.0 -1e-06 -17.346416 -20.095213 -4.201781 21.757557 -1.638376 3.866427 1e-06 -6.338825 -0.0 -1.697589 -22.591742 -6.194009 0.0 -3e-06 -4e-06 -177.531189 -53.843788 5.346345 137.629395 -43.64061 -107.469627 124.534828 -4.668259 0.834566 -17.90023 -11.722802 73.203636 22.18211 -20.375904 49.933323 -16.701811 -16.74353 28.476534 -3e-06 -12.6906 0.0 14.510836 -14.895144 3.202279 -0.105919 -1.513856 -4.275883 -5.039042 -5.612871 -2.953556 4e-06 -11.020525 -1e-06 -6.111299 -15.895334 -3.84047 -0.0 -0.0 -0.0 -10.283369 -5.680289 -4.341839 11.028294 -11.302406 -2.372633 -1.38427 -14.238579 -6.320121 -0.625442 -26.924189 -3.8276 -4.535627 -49.646599 -1.93957 -13.708524 -7.363477 -3.720939 18.14115 -14.05274 -3.242676 5e-06 -18.787271 -1e-06 -0.429714 -8.456045 2.555504 -2e-06 2e-06 -0.0 -15.923534 -20.094484 -5.473584 30.41921 -7.190824 1.735924 2e-06 -8.162922 0.0 -1.861906 -22.861471 -6.16794 1e-06 -4e-06 -2e-06 98.176994 -2.632366 -1.887333 96.402145 -5.941466 2.108523 -61.189529 -5.807433 -4.144479 -6.924746 1.84601 2.888384 -0.999997 -1e-06 -0.0 -4.626093 -4.507488 55.023758 49.959202 26.049549 -29.893566 -85.337273 0.470739 -28.416237 -6.518825 0.26821 1.047205 -1.000002 -0.0 -0.0 
0.0 0.0 0.0 0.0 -0.0 0.0 -9.777666 17.254204 99.934265 172.010376 -85.316086 60.565262 2.777291 -8.128876 -2.359774 -11.245545 -2.489534 -1.583423 19.411747 -7.019943 -4.222643 41.952477 14.651304 1.350888 -2.117777 4.673299 -1.396722 -19.561888 2.125072 -6.189206 8e-06 -0.0 1e-06 -0.346251 0.328706 -0.15885 0.542578 0.581662 -0.151045 0.876436 0.048495 -0.147988 -5.461407 -70.622032 15.473982 45.32988 -29.880264 -28.559462 113.798378 1.297371 3.869585 1.947501 36.881893 8.316569 17.636631 -26.322739 52.411201 -19.466661 -14.395602 29.410393 1e-06 -8.774822 -3e-06 14.556074 -18.214481 8.021389 -0.609776 -1.795651 -3.889326 -4.80709 -11.046811 -2.937849 4e-06 -20.976019 2e-06 -5.019971 -25.03356 -4.03188 6e-06 0.0 0.0 -10.634535 -5.68697 -3.565588 10.573275 -17.922953 -3.113901 3e-06 -13.82121 1e-06 -0.501778 -31.181511 -4.027014 -14.277997 -59.438904 10.524997 -13.982715 -7.150195 -2.875043 13.772731 -8.401493 -3.218242 0.347735 -34.211555 0.771657 -0.963029 -17.733372 2.621022 -0.0 1e-06 -1e-06 -17.346422 -20.095215 -4.201781 21.757566 -1.638376 3.866429 1e-06 -6.338825 0.0 -1.697591 -22.591747 -6.194005 1e-06 -3e-06 -2e-06 -178.164917 -53.763275 6.280783 139.467987 -43.523209 -106.015236 123.786552 -4.212004 1.029379 -17.706011 -9.772794 76.108315 22.182108 -20.375891 49.933304 -16.701811 -16.743528 28.476528 -3e-06 -12.6906 -0.0 14.452085 -14.837268 3.282969 -0.105919 -1.513858 -4.275881 -5.039041 -5.612872 -2.953556 3e-06 -11.020524 -2e-06 -6.111297 -15.895334 -3.840469 0.0 -0.0 -0.0 -10.283367 -5.680288 -4.341838 11.028292 -11.302404 -2.372633 -1.38427 -14.238579 -6.320119 -0.62544 -26.924187 -3.8276 -4.741513 -49.797607 -1.705854 -13.708522 -7.363476 -3.720938 18.141146 -14.052738 -3.242675 5e-06 -18.78727 -2e-06 -0.429712 -8.456043 2.555504 -1e-06 1e-06 -1e-06 -15.923531 -20.094482 -5.473583 30.419207 -7.190825 1.735924 2e-06 -8.162922 -1e-06 -1.861902 -22.861469 -6.16794 1e-06 -4e-06 -2e-06 97.675583 -3.77744 -1.639503 95.808029 -6.188081 2.359833 -62.465816 -3.556697 -3.194584 -6.86279 1.852943 2.865104 -0.999999 -1e-06 -0.0 -4.024353 -5.304687 55.953056 47.258968 26.06859 -31.506577 -84.543625 0.484003 -28.038454 -6.442332 0.293116 1.029539 -1.0 -1e-06 0.0 
0.0 0.0 0.0 0.0 -0.0 0.0 -9.492238 16.923851 100.746384 179.251129 -85.611305 52.683178 2.357007 -7.960241 -2.300515 -11.393389 -2.571806 -1.546283 19.430407 -6.888851 -3.988809 41.9618 14.333823 1.137016 -2.106739 4.651189 -1.13299 -19.66679 2.026644 -5.969489 7e-06 -1e-06 2e-06 -0.354236 0.318933 -0.201069 0.467743 0.556793 -0.186087 0.826615 0.053148 -0.198459 -6.060329 -70.233849 16.182308 44.506744 -30.268824 -27.520254 114.829346 1.324108 3.959049 1.830466 39.025879 9.038271 17.636631 -26.322721 52.411182 -19.46666 -14.395594 29.410385 -0.0 -8.774819 -2e-06 14.663875 -18.095058 7.888214 -0.609776 -1.795655 -3.889328 -4.807091 -11.046806 -2.93785 6e-06 -20.976011 -4e-06 -5.019969 -25.033556 -4.031881 6e-06 0.0 -1e-06 -10.634532 -5.686969 -3.565587 10.573271 -17.922945 -3.113899 4e-06 -13.821203 0.0 -0.501776 -31.181498 -4.027013 -13.975618 -59.297806 10.175092 -13.982714 -7.150197 -2.875043 13.772727 -8.401489 -3.21824 0.347737 -34.211544 0.771653 -0.963028 -17.73337 2.621021 0.0 1e-06 -1e-06 -17.346415 -20.095211 -4.201784 21.757555 -1.638378 3.866431 1e-06 -6.338823 2e-06 -1.697587 -22.591742 -6.194006 1e-06 -3e-06 -3e-06 -179.101227 -53.500908 7.463623 141.421219 -43.453327 -105.236191 123.209251 -4.085832 1.206322 -16.870626 -8.016336 78.203972 22.182102 -20.375872 49.933296 -16.701807 -16.743525 28.476519 -3e-06 -12.690597 -1e-06 14.40542 -14.857832 3.345076 -0.10592 -1.513855 -4.27588 -5.03904 -5.612869 -2.953555 4e-06 -11.020517 -3e-06 -6.111295 -15.895324 -3.840471 0.0 1e-06 -0.0 -10.283368 -5.680287 -4.341836 11.028292 -11.302399 -2.372634 -1.384268 -14.238571 -6.32012 -0.625435 -26.924171 -3.827603 -4.776226 -49.868885 -1.62803 -13.708521 -7.363472 -3.720938 18.141146 -14.052732 -3.242674 8e-06 -18.787258 -4e-06 -0.429711 -8.456038 2.555502 -1e-06 0.0 -1e-06 -15.923531 -20.094475 -5.473584 30.419205 -7.190823 1.735924 4e-06 -8.162919 -2e-06 -1.861899 -22.86146 -6.167939 -0.0 -2e-06 -1e-06 97.087723 -5.152084 -1.592277 95.213402 -6.321612 2.636078 -63.730125 -1.472209 -2.255728 -6.854557 1.811966 2.81372 -0.999999 0.0 -0.0 -3.641043 -5.979311 56.958755 44.65155 25.846405 -33.259602 -83.613441 0.45524 -28.022387 -6.506852 0.342811 1.030814 -1.000004 1e-06 0.0 
0.0 0.0 0.0 0.0 -0.0 0.0 -9.230796 16.768635 101.469841 -173.218674 -85.890678 44.416622 1.975265 -7.782237 -2.204616 -11.489916 -2.633794 -1.544124 19.424461 -6.606473 -3.797696 41.668148 14.044489 1.068021 -2.104235 4.600431 -0.879972 -20.042177 1.785203 -5.986682 6e-06 -0.0 3e-06 -0.348077 0.329445 -0.212824 0.436127 0.564309 -0.194483 0.802753 0.066867 -0.211199 -7.20626 -69.678329 17.270332 43.774689 -30.862865 -26.425886 115.772392 1.599941 4.053777 1.565346 40.76059 8.426391 17.636627 -26.322725 52.411198 -19.466661 -14.395598 29.410395 0.0 -8.774821 -2e-06 14.724822 -17.892254 7.767213 -0.609776 -1.795655 -3.889328 -4.807092 -11.046813 -2.937852 4e-06 -20.976019 -4e-06 -5.019969 -25.03356 -4.031883 6e-06 0.0 0.0 -10.634537 -5.68697 -3.565588 10.573275 -17.922951 -3.113902 3e-06 -13.821205 -0.0 -0.501778 -31.181505 -4.027018 -13.77218 -59.318214 9.926842 -13.982716 -7.1502 -2.875041 13.772728 -8.401491 -3.21824 0.347734 -34.211552 0.771648 -0.963027 -17.73337 2.621018 -0.0 0.0 -1e-06 -17.346422 -20.095221 -4.201779 21.757561 -1.638371 3.866427 1e-06 -6.338823 1e-06 -1.697589 -22.591747 -6.194009 1e-06 -4e-06 -2e-06 179.807617 -53.213284 8.714256 143.082932 -43.56929 -104.360954 122.759453 -4.050681 1.402052 -15.478959 -6.457075 79.550903 22.182119 -20.375889 49.933315 -16.701813 -16.74353 28.476532 -2e-06 -12.690603 -1e-06 14.415028 -14.873313 3.312958 -0.105919 -1.513856 -4.275882 -5.039043 -5.612873 -2.953557 3e-06 -11.020523 -2e-06 -6.1113 -15.895334 -3.840472 -0.0 -0.0 0.0 -10.283371 -5.680288 -4.341838 11.028295 -11.302404 -2.372633 -1.38427 -14.238579 -6.320122 -0.625438 -26.924187 -3.827604 -4.734739 -49.738556 -1.676597 -13.708527 -7.363477 -3.720938 18.141151 -14.052739 -3.242675 5e-06 -18.78727 -3e-06 -0.429711 -8.456045 2.555503 -1e-06 1e-06 0.0 -15.923539 -20.094486 -5.473585 30.419218 -7.190826 1.735927 1e-06 -8.162925 -1e-06 -1.861901 -22.861469 -6.167945 0.0 -2e-06 -0.0 96.589226 -6.696969 -1.658984 94.617516 -6.348118 2.838016 -65.070053 0.396168 -1.404436 -6.886636 1.798034 2.748462 -0.999999 0.0 -1e-06 -3.434789 -6.520755 58.111755 42.35527 25.424675 -34.895275 -82.480423 0.570017 -28.33493 -6.724857 0.401914 1.03275 -1.000001 -1e-06 1e-06 
